<?xml version="1.0" encoding="UTF-8"?>
<svg xmlns="http://www.w3.org/2000/svg" xmlns:xlink="http://www.w3.org/1999/xlink" width="73.298" height="59.114" viewBox="0 0 73.298 59.114">
<defs>
<clipPath id="clip-0">
<path clip-rule="nonzero" d="M 9 0 L 72.945312 0 L 72.945312 58.671875 L 9 58.671875 Z M 9 0 "/>
</clipPath>
</defs>
<path fill-rule="nonzero" fill="rgb(100%, 94.898987%, 0%)" fill-opacity="1" d="M 71.734375 29.121094 C 71.734375 13.464844 59.042969 0.773438 43.386719 0.773438 C 27.730469 0.773438 15.039062 13.464844 15.039062 29.121094 C 15.039062 44.777344 27.730469 57.46875 43.386719 57.46875 C 59.042969 57.46875 71.734375 44.777344 71.734375 29.121094 Z M 71.734375 29.121094 "/>
<g clip-path="url(#clip-0)">
<path fill="none" stroke-width="0.3985" stroke-linecap="butt" stroke-linejoin="miter" stroke="rgb(0%, 0%, 0%)" stroke-opacity="1" stroke-miterlimit="10" d="M 28.348375 -0.00009375 C 28.348375 15.656156 15.656969 28.347563 0.00071875 28.347563 C -15.655531 28.347563 -28.346937 15.656156 -28.346937 -0.00009375 C -28.346937 -15.656344 -15.655531 -28.34775 0.00071875 -28.34775 C 15.656969 -28.34775 28.348375 -15.656344 28.348375 -0.00009375 Z M 28.348375 -0.00009375 " transform="matrix(1, 0, 0, -1, 43.386, 29.121)"/>
<path fill="none" stroke-width="0.3985" stroke-linecap="butt" stroke-linejoin="miter" stroke="rgb(0%, 0%, 0%)" stroke-opacity="1" stroke-miterlimit="10" d="M 28.348375 -0.00009375 C 28.348375 15.656156 15.656969 28.347563 0.00071875 28.347563 C -15.655531 28.347563 -28.346937 15.656156 -28.346937 -0.00009375 C -28.346937 -15.656344 -15.655531 -28.34775 0.00071875 -28.34775 C 15.656969 -28.34775 28.348375 -15.656344 28.348375 -0.00009375 Z M 28.348375 -0.00009375 " transform="matrix(1, 0, 0, -1, 43.386, 29.121)"/>
</g>
<path fill="none" stroke-width="0.3985" stroke-linecap="butt" stroke-linejoin="miter" stroke="rgb(0%, 0%, 0%)" stroke-opacity="1" stroke-miterlimit="10" d="M 11.340563 8.503813 C 11.340563 10.070219 10.071031 11.33975 8.504625 11.33975 C 6.938219 11.33975 5.668688 10.070219 5.668688 8.503813 C 5.668688 6.937406 6.938219 5.667875 8.504625 5.667875 C 10.071031 5.667875 11.340563 6.937406 11.340563 8.503813 Z M 11.340563 8.503813 " transform="matrix(1, 0, 0, -1, 43.386, 29.121)"/>
<path fill="none" stroke-width="0.3985" stroke-linecap="butt" stroke-linejoin="miter" stroke="rgb(0%, 0%, 0%)" stroke-opacity="1" stroke-miterlimit="10" d="M -5.671156 8.503813 C -5.671156 10.070219 -6.936781 11.33975 -8.503187 11.33975 C -10.069594 11.33975 -11.339125 10.070219 -11.339125 8.503813 C -11.339125 6.937406 -10.069594 5.667875 -8.503187 5.667875 C -6.936781 5.667875 -5.671156 6.937406 -5.671156 8.503813 Z M -5.671156 8.503813 " transform="matrix(1, 0, 0, -1, 43.386, 29.121)"/>
<path fill="none" stroke-width="0.3985" stroke-linecap="butt" stroke-linejoin="miter" stroke="rgb(0%, 0%, 0%)" stroke-opacity="1" stroke-miterlimit="10" d="M -14.175062 -14.171969 C -14.175062 -17.304781 -20.518812 -19.843844 -28.346937 -19.843844 C -36.175062 -19.843844 -42.518812 -17.304781 -42.518812 -14.171969 " transform="matrix(1, 0, 0, -1, 43.386, 29.121)"/>
</svg>
